<svg xmlns="http://www.w3.org/2000/svg" width="512" height="512" viewBox="0 0 512 512" version="1.1"><path d="M 73.418 124.750 C 73.723 125.713, 76.683 136.400, 79.997 148.500 C 83.310 160.600, 86.457 171.512, 86.989 172.750 L 87.957 175 265.052 175 C 408.703 175, 442.086 174.758, 441.823 173.716 C 441.645 173.010, 439.700 165.789, 437.500 157.670 C 433.855 144.217, 433.322 142.959, 431.500 143.493 C 419.672 146.957, 414.714 146.526, 412.064 141.805 C 409.083 136.493, 412.875 131.792, 421.179 130.506 C 423.202 130.193, 425.887 129.102, 427.146 128.083 C 429.107 126.495, 429.243 125.998, 428.095 124.615 C 427 123.295, 424.593 123, 414.908 123 L 403.062 123 400.319 128.602 C 396.949 135.483, 390.558 141.273, 383.360 143.967 C 372.855 147.897, 366 145.739, 366 138.500 C 366 134.222, 369.202 131, 373.454 131 C 377.213 131, 382.858 128.099, 384.805 125.167 L 386.244 123 371.650 123 L 357.056 123 354.896 128.020 C 350.648 137.896, 338.647 146, 328.273 146 C 324.155 146, 320 142.233, 320 138.500 C 320 135.212, 324.150 131, 327.389 131 C 332.109 131, 340 126.511, 340 123.826 C 340 123.372, 333.587 123.002, 325.750 123.004 L 311.500 123.007 309.702 127.379 C 305.866 136.709, 296.479 144.013, 286.297 145.590 C 280.156 146.541, 277.096 145.457, 275.552 141.785 C 273.159 136.094, 276.428 131, 282.474 131 C 285.935 131, 292.664 127.496, 294.002 124.997 C 295.047 123.044, 294.753 123, 280.582 123 L 266.094 123 263.997 127.750 C 259.828 137.199, 249.672 144.671, 239.613 145.691 C 235.380 146.121, 234.027 145.835, 231.750 144.032 C 226.394 139.791, 229.645 131, 236.570 131 C 241.125 131, 249 126.455, 249 123.826 C 249 123.372, 242.536 123, 234.636 123 L 220.272 123 218.611 127.349 C 214.896 137.076, 204.810 144.545, 193.867 145.674 C 186.856 146.397, 183.600 144.122, 183.600 138.500 C 183.600 134.005, 186.655 131, 191.225 131 C 194.750 131, 201.099 127.672, 202.815 124.925 C 203.980 123.058, 203.578 123, 189.555 123 L 175.094 123 173.159 127.372 C 168.859 137.094, 158.711 144.667, 148.613 145.691 C 144.380 146.121, 143.027 145.835, 140.750 144.032 C 135.394 139.791, 138.645 131, 145.570 131 C 150.125 131, 158 126.455, 158 123.826 C 158 123.372, 151.536 123, 143.636 123 L 129.272 123 127.557 127.489 C 125.375 133.204, 118.255 140.557, 112.395 143.150 C 109.895 144.255, 105.447 145.408, 102.511 145.711 C 97.719 146.206, 96.906 145.997, 94.586 143.677 C 93.135 142.226, 92 139.953, 92 138.500 C 92 135.171, 96.164 131, 99.487 131 C 103.173 131, 108.109 128.682, 110.924 125.629 L 113.349 123 93.107 123 C 74.285 123, 72.904 123.123, 73.418 124.750" stroke="none" fill="#fc5b94" fill-rule="evenodd"/><path d="M 92 190.595 C 92 190.925, 97.625 211.538, 104.500 236.401 C 111.375 261.265, 117 282.843, 117 284.352 C 117 286.018, 115.985 288.037, 114.413 289.493 C 111.837 291.881, 111.832 291.912, 113.338 297.195 C 114.169 300.113, 115.350 304.413, 115.963 306.750 C 116.875 310.229, 117.504 311, 119.428 311 C 124.738 311, 125.657 313.054, 134.185 344 C 138.656 360.225, 142.749 374.063, 143.280 374.750 C 144.041 375.736, 166.957 376, 251.900 376 C 369.057 376, 362.956 375.703, 364.405 381.477 C 365.028 383.961, 365.190 384, 374.898 384 L 384.757 384 386.016 380.962 C 386.708 379.291, 388.083 377.491, 389.071 376.962 C 390.156 376.381, 411.657 376, 443.327 376 C 485.868 376, 495.882 375.750, 496.293 374.679 C 496.572 373.953, 485.438 332.216, 471.551 281.929 L 446.303 190.500 269.152 190.247 C 171.718 190.108, 92 190.265, 92 190.595 M 139.481 211.394 C 135.239 213.242, 130.222 219.300, 129.428 223.534 C 128.464 228.668, 129.057 231.261, 136.441 254.204 C 146.542 285.592, 146.265 285.346, 172.100 285.829 C 190.724 286.177, 195.871 285.463, 200.397 281.902 C 204.006 279.064, 207 272.887, 207 268.282 C 207 264.939, 194.367 223.385, 192.057 219.130 C 190.586 216.420, 185.675 212.193, 182.685 211.064 C 178.470 209.471, 143.276 209.740, 139.481 211.394 M 219 215 C 217.762 216.238, 217 218.333, 217 220.500 C 217 226.690, 219.427 228, 230.889 228 C 242.778 228, 245.400 226.645, 245.400 220.500 C 245.400 214.355, 242.778 213, 230.889 213 C 222.333 213, 220.730 213.270, 219 215 M 265.911 214.871 C 264.238 216.225, 263.600 217.780, 263.600 220.500 C 263.600 226.561, 266.273 228, 277.529 228 C 282.648 228, 287.598 227.708, 288.529 227.350 C 291.192 226.329, 292.951 221.158, 291.780 217.799 C 290.354 213.708, 288.274 213, 277.677 213 C 269.929 213, 267.804 213.338, 265.911 214.871 M 312.455 215.455 C 311.105 216.805, 310 219.075, 310 220.500 C 310 221.925, 311.105 224.195, 312.455 225.545 C 314.729 227.820, 315.633 228, 324.780 228 C 333.805 228, 334.838 227.802, 336.826 225.686 C 339.714 222.611, 339.652 217.961, 336.686 215.174 C 334.637 213.249, 333.255 213, 324.640 213 C 315.642 213, 314.724 213.185, 312.455 215.455 M 359.455 215.455 C 356.455 218.454, 356.323 221.870, 359.073 225.365 C 361.071 227.906, 361.513 228, 371.398 228 C 380.823 228, 381.827 227.813, 383.826 225.686 C 386.714 222.611, 386.652 217.961, 383.686 215.174 C 381.637 213.249, 380.255 213, 371.640 213 C 362.642 213, 361.724 213.185, 359.455 215.455 M 406.174 215.314 C 403.286 218.389, 403.348 223.039, 406.314 225.826 C 408.376 227.762, 409.735 228, 418.742 228 C 428.476 228, 428.932 227.901, 430.927 225.365 C 433.677 221.870, 433.545 218.454, 430.545 215.455 C 428.271 213.180, 427.367 213, 418.220 213 C 409.195 213, 408.162 213.198, 406.174 215.314 M 229.736 255.250 C 225.852 258.199, 225.874 264.663, 229.777 267.627 C 231.573 268.992, 248.342 269.573, 251.455 268.379 C 253.897 267.442, 256.138 262.398, 255.407 259.485 C 254.299 255.069, 251.484 254, 240.969 254 C 234.844 254, 230.788 254.451, 229.736 255.250 M 275.911 255.871 C 274.238 257.225, 273.600 258.780, 273.600 261.500 C 273.600 267.622, 276.243 269.007, 287.861 268.968 C 298.161 268.934, 300.219 268.186, 301.857 263.875 C 302.984 260.912, 301.078 255.628, 298.529 254.650 C 297.598 254.292, 292.648 254, 287.529 254 C 279.925 254, 277.799 254.342, 275.911 255.871 M 322.073 256.635 C 319.323 260.130, 319.455 263.546, 322.455 266.545 C 324.729 268.820, 325.633 269, 334.780 269 C 343.805 269, 344.838 268.802, 346.826 266.686 C 349.714 263.611, 349.652 258.961, 346.686 256.174 C 344.624 254.238, 343.265 254, 334.258 254 C 324.524 254, 324.068 254.099, 322.073 256.635 M 369.073 256.635 C 366.323 260.130, 366.455 263.546, 369.455 266.545 C 371.719 268.810, 372.650 269, 381.500 269 C 390.350 269, 391.281 268.810, 393.545 266.545 C 396.695 263.396, 396.754 259.057, 393.686 256.174 C 391.624 254.238, 390.265 254, 381.258 254 C 371.524 254, 371.068 254.099, 369.073 256.635 M 416.174 256.314 C 413.286 259.389, 413.348 264.039, 416.314 266.826 C 418.363 268.751, 419.745 269, 428.360 269 C 437.358 269, 438.276 268.815, 440.545 266.545 C 443.545 263.546, 443.677 260.130, 440.927 256.635 C 438.929 254.094, 438.487 254, 428.602 254 C 419.177 254, 418.173 254.187, 416.174 256.314 M 238.944 296.844 C 235.888 299.319, 235.918 304.219, 239.008 307.508 C 241.192 309.833, 241.991 309.998, 250.924 309.968 C 256.870 309.948, 261.102 309.475, 262.087 308.718 C 266.410 305.399, 266.697 299.302, 262.663 296.477 C 259.334 294.144, 241.945 294.414, 238.944 296.844 M 285.073 297.635 C 282.614 300.760, 282.512 302.155, 284.463 305.928 C 286.385 309.646, 287.558 310, 297.947 310 C 308.574 310, 312 308.154, 312 302.427 C 312 296.244, 309.584 295, 297.573 295 C 287.499 295, 287.075 295.089, 285.073 297.635 M 332.073 297.635 C 329.323 301.130, 329.455 304.546, 332.455 307.545 C 334.713 309.804, 335.662 310, 344.320 310 C 352.326 310, 354.123 309.691, 356.365 307.927 C 359.667 305.330, 359.978 299.978, 357 297 C 355.256 295.256, 353.667 295, 344.573 295 C 334.499 295, 334.075 295.089, 332.073 297.635 M 379.174 297.314 C 376.290 300.385, 376.403 304.493, 379.455 307.545 C 381.719 309.810, 382.650 310, 391.500 310 C 400.350 310, 401.281 309.810, 403.545 307.545 C 406.695 304.396, 406.754 300.057, 403.686 297.174 C 401.627 295.241, 400.262 295, 391.360 295 C 382.188 295, 381.166 295.194, 379.174 297.314 M 426 297 C 423.022 299.978, 423.333 305.330, 426.635 307.927 C 428.877 309.691, 430.674 310, 438.680 310 C 447.338 310, 448.287 309.804, 450.545 307.545 C 453.545 304.546, 453.677 301.130, 450.927 297.635 C 448.925 295.089, 448.501 295, 438.427 295 C 429.333 295, 427.744 295.256, 426 297 M 166 305 C 163.255 307.745, 163.462 311.480, 167.081 324.454 C 174.118 349.688, 173.865 349.040, 177.245 350.461 C 182.631 352.726, 188 349.564, 188 344.127 C 188 340.162, 178.193 306.871, 176.461 304.957 C 174.108 302.356, 168.621 302.379, 166 305 M 198.017 320.286 C 193.715 322.462, 193.304 325.898, 196.048 336.752 C 198.895 348.016, 201.170 351.356, 205.903 351.222 C 213.364 351.010, 214.862 346.562, 211.497 334.606 C 208.333 323.361, 207.420 321.513, 204.343 320.110 C 201.319 318.733, 201.073 318.740, 198.017 320.286 M 249.354 335.636 C 246.595 336.248, 244.335 338.781, 243.476 342.225 C 242.925 344.430, 243.372 345.526, 245.821 347.975 C 248.741 350.895, 249.160 351, 257.867 351 C 265.886 351, 267.191 350.740, 269.611 348.658 C 273.020 345.726, 273.290 340.845, 270.212 337.768 C 268.442 335.997, 266.718 335.606, 259.795 335.403 C 255.233 335.269, 250.534 335.374, 249.354 335.636 M 296.270 335.703 C 293.877 336.165, 290 340.422, 290 342.588 C 290 345.232, 292.280 348.806, 294.657 349.890 C 295.998 350.500, 300.837 351, 305.412 351 C 312.313 351, 314.179 350.647, 316.365 348.927 C 321.006 345.277, 319.612 338.106, 313.872 336.105 C 310.816 335.040, 300.878 334.813, 296.270 335.703 M 343 335.706 C 337.044 337.883, 335.259 344.349, 339.455 348.545 C 341.719 350.810, 342.650 351, 351.500 351 C 360.350 351, 361.281 350.810, 363.545 348.545 C 367.791 344.300, 366.448 338.049, 360.872 336.105 C 357.640 334.979, 345.718 334.713, 343 335.706 M 388.400 336.378 C 383.319 338.671, 382.391 344.481, 386.455 348.545 C 388.719 350.810, 389.650 351, 398.500 351 C 407.350 351, 408.281 350.810, 410.545 348.545 C 413.806 345.285, 413.756 341.059, 410.420 337.924 C 408.188 335.827, 406.739 335.465, 399.670 335.239 C 394.298 335.068, 390.438 335.458, 388.400 336.378 M 435.400 336.428 C 430.169 338.705, 429.216 345.452, 433.635 348.927 C 435.874 350.689, 437.675 351, 445.635 351 C 455.883 351, 458.235 349.895, 459.605 344.438 C 460.402 341.261, 457.485 336.874, 453.910 335.873 C 449.701 334.696, 438.615 335.028, 435.400 336.428" stroke="none" fill="#ebf7ff" fill-rule="evenodd"/><path d="M 91.655 189.750 C 91.400 190.162, 171.205 190.500, 269 190.500 C 366.795 190.500, 446.600 190.162, 446.345 189.750 C 446.091 189.338, 366.285 189, 269 189 C 171.715 189, 91.909 189.338, 91.655 189.750 M 77.408 201.500 C 77.756 204.800, 81.181 248, 85.019 297.500 C 94.068 414.209, 93.708 410.197, 95.223 411.159 C 96.960 412.261, 430.136 412.200, 431.877 411.097 C 432.976 410.401, 433.109 408.280, 432.534 400.612 L 431.813 391 410.907 391 C 391.333 391, 389.872 390.872, 388 389 C 386.900 387.900, 385.964 385.762, 385.921 384.250 C 385.878 382.738, 385.615 382.063, 385.338 382.750 C 384.982 383.631, 381.931 384, 375 384 C 368.034 384, 365.039 383.636, 364.728 382.750 C 364.487 382.063, 364.281 382.823, 364.270 384.440 C 364.258 386.259, 363.398 388.069, 362.014 389.190 C 359.887 390.912, 354.475 390.999, 250.139 390.984 L 140.500 390.967 136.530 388.718 C 134.346 387.481, 131.624 385.081, 130.480 383.384 C 128.234 380.052, 111.927 322.257, 111.973 317.790 C 111.989 316.217, 113.041 314.116, 114.482 312.779 L 116.964 310.478 114.336 300.739 C 111.811 291.385, 111.598 291, 108.926 291 C 107.192 291, 105.444 290.108, 104.281 288.630 C 103.200 287.256, 97.229 267.410, 90.066 241.380 C 83.273 216.696, 77.503 196.275, 77.245 196 C 76.987 195.725, 77.060 198.200, 77.408 201.500 M 39.142 264.146 C 34.545 285.725, 30.333 304.370, 29.782 305.580 C 28.785 307.768, 25.134 310, 22.553 310 C 21.678 310, 20.607 312.733, 19.516 317.750 C 18.590 322.012, 17.596 326.512, 17.308 327.750 C 17.006 329.045, 17.253 330, 17.892 330 C 20.018 330, 23 334.022, 23 336.890 C 23 338.479, 21.183 348.227, 18.962 358.552 C 16.176 371.505, 15.246 377.646, 15.961 378.361 C 16.916 379.316, 37.088 382.245, 37.801 381.532 C 38.330 381.004, 48.082 230.694, 47.781 227.706 C 47.627 226.169, 43.739 242.567, 39.142 264.146 M 144.456 226.255 C 143.670 228.302, 156.772 268.331, 158.691 269.750 C 161.132 271.554, 187.951 271.488, 190.435 269.671 C 192.156 268.413, 191.889 267.218, 185.347 246.921 L 178.442 225.500 161.699 225.226 C 148.660 225.012, 144.845 225.240, 144.456 226.255 M 58.660 302.066 C 56.019 343.005, 53.634 378.750, 53.361 381.500 L 52.865 386.500 65.548 393.765 L 78.232 401.030 77.652 396.765 C 77.334 394.419, 74.341 356.725, 71.002 313 C 67.664 269.275, 64.601 232.180, 64.197 230.566 C 63.767 228.846, 61.476 258.424, 58.660 302.066 M 165.199 285.744 C 169.984 285.927, 178.084 285.928, 183.199 285.746 C 188.315 285.564, 184.400 285.414, 174.500 285.413 C 164.600 285.412, 160.415 285.561, 165.199 285.744 M 254.250 335.728 C 256.313 335.944, 259.688 335.944, 261.750 335.728 C 263.813 335.513, 262.125 335.336, 258 335.336 C 253.875 335.336, 252.188 335.513, 254.250 335.728 M 301.250 335.728 C 303.313 335.944, 306.688 335.944, 308.750 335.728 C 310.813 335.513, 309.125 335.336, 305 335.336 C 300.875 335.336, 299.188 335.513, 301.250 335.728 M 347.776 335.733 C 350.128 335.945, 353.728 335.942, 355.776 335.727 C 357.824 335.512, 355.900 335.339, 351.500 335.343 C 347.100 335.346, 345.424 335.522, 347.776 335.733 M 394.776 335.733 C 397.128 335.945, 400.728 335.942, 402.776 335.727 C 404.824 335.512, 402.900 335.339, 398.500 335.343 C 394.100 335.346, 392.424 335.522, 394.776 335.733 M 441.250 335.728 C 443.313 335.944, 446.688 335.944, 448.750 335.728 C 450.813 335.513, 449.125 335.336, 445 335.336 C 440.875 335.336, 439.188 335.513, 441.250 335.728" stroke="none" fill="#30a6fb" fill-rule="evenodd"/><path d="M 92.500 85.938 C 84.067 88, 75.273 95.492, 71.591 103.750 C 69.739 107.905, 69.588 108, 64.848 108 C 59.583 108, 56.517 110.040, 55.495 114.225 C 55.189 115.476, 45.978 158.342, 35.026 209.482 C 13.413 310.402, 14.142 305.545, 20.113 308.892 C 23.535 310.810, 28.363 308.974, 29.911 305.164 C 30.507 303.699, 34.784 284.950, 39.417 263.500 C 44.050 242.050, 47.872 226.075, 47.912 228 C 48.006 232.504, 38.218 381.115, 37.801 381.532 C 37.088 382.245, 16.916 379.316, 15.961 378.361 C 15.246 377.646, 16.176 371.505, 18.962 358.552 C 21.183 348.227, 23 338.674, 23 337.324 C 23 333.734, 21.462 331.434, 18.141 330.058 C 15.719 329.055, 14.675 329.117, 12.174 330.410 C 10.506 331.273, 8.894 332.771, 8.592 333.739 C 6.760 339.610, -0 373.660, -0 377.020 C -0 382.400, 2.044 387.018, 5.839 390.211 C 9.964 393.682, 13.015 394.513, 29 396.520 L 42.500 398.216 66.500 412.358 L 90.500 426.500 263.573 426.500 L 436.646 426.500 440.270 424.017 C 443.962 421.487, 447.296 416.498, 448.300 412 C 448.607 410.625, 448.541 405.563, 448.153 400.750 L 447.447 392 470.473 391.976 C 483.138 391.962, 495.516 391.487, 497.980 390.919 C 503.538 389.638, 508.301 386.102, 510.003 381.993 C 510.963 379.675, 511.530 379.206, 512.193 380.183 C 512.747 381, 512.937 379.221, 512.691 375.500 C 512.440 371.691, 500.176 325.867, 479.103 250 L 445.911 130.500 447.455 125.635 C 452.203 110.682, 445.491 94.845, 431.484 87.953 C 427.410 85.948, 425.040 85.510, 418.500 85.552 C 409.879 85.608, 404.235 87.660, 398.863 92.689 L 396.225 95.159 391.570 91.605 C 386.526 87.755, 378.780 85, 373 85 C 367.323 85, 359.503 87.733, 354.709 91.393 L 350.333 94.733 346.416 91.792 C 339.862 86.869, 336.185 85.681, 327.500 85.681 C 318.815 85.681, 315.138 86.869, 308.584 91.792 L 304.667 94.733 300.291 91.393 C 295.497 87.733, 287.677 85, 282 85 C 276.220 85, 268.474 87.755, 263.430 91.605 L 258.775 95.159 256.137 92.689 C 246.180 83.367, 229.106 82.753, 217.952 91.316 L 213.584 94.669 209.227 91.344 C 198.100 82.850, 180.408 83.492, 170.750 92.741 L 168 95.374 165.250 92.741 C 155.592 83.492, 137.900 82.850, 126.773 91.344 L 122.416 94.669 118.069 91.332 C 111.050 85.944, 101.079 83.841, 92.500 85.938 M 92.500 102.842 C 90.850 103.850, 88.882 105.424, 88.128 106.338 C 86.861 107.872, 87.737 108, 99.533 108 L 112.310 108 110.407 105.898 C 105.849 100.860, 97.946 99.512, 92.500 102.842 M 139.966 101.820 C 137.693 102.828, 134.481 105.326, 133.630 106.750 C 133.047 107.724, 135.693 108, 145.596 108 L 158.310 108 156.407 105.898 C 152.523 101.606, 144.782 99.686, 139.966 101.820 M 183.500 102.842 C 181.850 103.850, 179.882 105.424, 179.128 106.338 C 177.861 107.872, 178.729 108, 190.413 108 C 202.466 108, 203.023 107.911, 202.070 106.130 C 199.536 101.396, 188.935 99.519, 183.500 102.842 M 229.500 102.842 C 227.850 103.850, 225.882 105.424, 225.128 106.338 C 223.861 107.872, 224.737 108, 236.533 108 L 249.310 108 247.407 105.898 C 242.849 100.860, 234.946 99.512, 229.500 102.842 M 277 101.668 C 274.336 102.764, 270 106.109, 270 107.068 C 270 107.592, 275.251 108, 282 108 C 288.749 108, 294 107.592, 294 107.068 C 294 106.556, 292.593 105.134, 290.872 103.909 C 287.749 101.685, 280 100.433, 277 101.668 M 320.500 102.842 C 318.850 103.850, 316.882 105.424, 316.128 106.338 C 314.861 107.872, 315.737 108, 327.533 108 L 340.310 108 338.407 105.898 C 333.849 100.860, 325.946 99.512, 320.500 102.842 M 368 101.668 C 365.336 102.764, 361 106.109, 361 107.068 C 361 107.592, 366.251 108, 373 108 C 379.749 108, 385 107.592, 385 107.068 C 385 106.556, 383.593 105.134, 381.872 103.909 C 378.749 101.685, 371 100.433, 368 101.668 M 411.500 102.842 C 409.850 103.850, 407.904 105.398, 407.175 106.281 C 405.972 107.738, 407.051 107.915, 418.867 108.193 L 431.886 108.500 429.693 106.155 C 424.723 100.840, 417.057 99.444, 411.500 102.842 M 73.418 124.750 C 73.723 125.713, 76.683 136.400, 79.997 148.500 C 83.310 160.600, 86.457 171.512, 86.989 172.750 L 87.957 175 265.052 175 C 408.703 175, 442.086 174.758, 441.823 173.716 C 441.645 173.010, 439.700 165.789, 437.500 157.670 C 433.855 144.217, 433.322 142.959, 431.500 143.493 C 419.672 146.957, 414.714 146.526, 412.064 141.805 C 409.083 136.493, 412.875 131.792, 421.179 130.506 C 423.202 130.193, 425.887 129.102, 427.146 128.083 C 429.107 126.495, 429.243 125.998, 428.095 124.615 C 427 123.295, 424.593 123, 414.908 123 L 403.062 123 400.319 128.602 C 396.949 135.483, 390.558 141.273, 383.360 143.967 C 372.855 147.897, 366 145.739, 366 138.500 C 366 134.222, 369.202 131, 373.454 131 C 377.213 131, 382.858 128.099, 384.805 125.167 L 386.244 123 371.650 123 L 357.056 123 354.896 128.020 C 350.648 137.896, 338.647 146, 328.273 146 C 324.155 146, 320 142.233, 320 138.500 C 320 135.212, 324.150 131, 327.389 131 C 332.109 131, 340 126.511, 340 123.826 C 340 123.372, 333.587 123.002, 325.750 123.004 L 311.500 123.007 309.702 127.379 C 305.866 136.709, 296.479 144.013, 286.297 145.590 C 280.156 146.541, 277.096 145.457, 275.552 141.785 C 273.159 136.094, 276.428 131, 282.474 131 C 285.935 131, 292.664 127.496, 294.002 124.997 C 295.047 123.044, 294.753 123, 280.582 123 L 266.094 123 263.997 127.750 C 259.828 137.199, 249.672 144.671, 239.613 145.691 C 235.380 146.121, 234.027 145.835, 231.750 144.032 C 226.394 139.791, 229.645 131, 236.570 131 C 241.125 131, 249 126.455, 249 123.826 C 249 123.372, 242.536 123, 234.636 123 L 220.272 123 218.611 127.349 C 214.896 137.076, 204.810 144.545, 193.867 145.674 C 186.856 146.397, 183.600 144.122, 183.600 138.500 C 183.600 134.005, 186.655 131, 191.225 131 C 194.750 131, 201.099 127.672, 202.815 124.925 C 203.980 123.058, 203.578 123, 189.555 123 L 175.094 123 173.159 127.372 C 168.859 137.094, 158.711 144.667, 148.613 145.691 C 144.380 146.121, 143.027 145.835, 140.750 144.032 C 135.394 139.791, 138.645 131, 145.570 131 C 150.125 131, 158 126.455, 158 123.826 C 158 123.372, 151.536 123, 143.636 123 L 129.272 123 127.557 127.489 C 125.375 133.204, 118.255 140.557, 112.395 143.150 C 109.895 144.255, 105.447 145.408, 102.511 145.711 C 97.719 146.206, 96.906 145.997, 94.586 143.677 C 93.135 142.226, 92 139.953, 92 138.500 C 92 135.171, 96.164 131, 99.487 131 C 103.173 131, 108.109 128.682, 110.924 125.629 L 113.349 123 93.107 123 C 74.285 123, 72.904 123.123, 73.418 124.750 M 91.830 189.504 C 91.550 189.784, 97.088 210.823, 104.138 236.256 C 111.188 261.690, 116.965 283.227, 116.978 284.115 C 116.990 285.003, 116.067 286.916, 114.927 288.365 C 112.161 291.883, 106.938 292.008, 104.275 288.622 C 103.186 287.238, 97.209 267.395, 89.982 241.175 C 83.150 216.388, 77.453 196.214, 77.323 196.344 C 77.112 196.555, 90.540 370.387, 92.972 398.924 C 93.589 406.163, 94.413 410.645, 95.223 411.159 C 96.960 412.261, 430.136 412.200, 431.877 411.097 C 432.976 410.401, 433.109 408.280, 432.534 400.612 L 431.813 391 410.907 391 C 391.333 391, 389.872 390.872, 388 389 C 385.022 386.022, 385.333 380.670, 388.635 378.073 C 391.224 376.036, 392.172 376, 443.666 376 C 487.623 376, 496.149 375.775, 496.599 374.602 C 496.894 373.833, 485.722 331.870, 471.771 281.352 L 446.407 189.500 269.373 189.247 C 172.004 189.108, 92.110 189.224, 91.830 189.504 M 139.500 211.881 C 137.300 212.891, 134.730 214.585, 133.788 215.645 C 131.522 218.197, 129 224.344, 129 227.314 C 129 231.070, 142.964 274.148, 145.332 277.697 C 146.506 279.455, 149.110 281.817, 151.119 282.947 C 154.461 284.825, 156.454 285, 174.500 285 C 192.546 285, 194.539 284.825, 197.881 282.947 C 202.497 280.352, 205.716 275.681, 206.565 270.346 C 207.122 266.842, 206.039 262.530, 199.638 242.763 C 195.465 229.877, 191.062 218.077, 189.854 216.541 C 185.476 210.976, 181.410 210.044, 161.500 210.044 C 146.152 210.044, 142.911 210.314, 139.500 211.881 M 219.635 215.073 C 217.724 216.576, 217 218.067, 217 220.500 C 217 226.137, 220.478 228, 231 228 C 241.522 228, 245 226.137, 245 220.500 C 245 214.863, 241.522 213, 231 213 C 223.682 213, 221.843 213.335, 219.635 215.073 M 266.635 215.073 C 262.991 217.939, 262.991 223.061, 266.635 225.927 C 268.843 227.665, 270.682 228, 278 228 C 288.522 228, 292 226.137, 292 220.500 C 292 214.863, 288.522 213, 278 213 C 270.682 213, 268.843 213.335, 266.635 215.073 M 314.303 214.197 C 309.532 216.502, 309.711 224.636, 314.582 226.856 C 315.964 227.485, 320.918 228, 325.593 228 C 333.282 228, 334.324 227.766, 336.545 225.545 C 337.895 224.195, 339 221.925, 339 220.500 C 339 219.075, 337.895 216.805, 336.545 215.455 C 334.298 213.208, 333.347 213.006, 325.295 213.068 C 320.458 213.105, 315.511 213.613, 314.303 214.197 M 361.235 214.037 C 358.504 215.134, 356.769 219.231, 357.613 222.593 C 358.693 226.899, 361.576 228, 371.768 228 C 380.333 228, 381.290 227.800, 383.545 225.545 C 384.895 224.195, 386 221.925, 386 220.500 C 386 219.075, 384.895 216.805, 383.545 215.455 C 381.299 213.208, 380.344 213.005, 372.295 213.063 C 367.458 213.098, 362.481 213.536, 361.235 214.037 M 406.455 215.455 C 405.105 216.805, 404 219.075, 404 220.500 C 404 221.925, 405.105 224.195, 406.455 225.545 C 408.701 227.792, 409.680 228, 418.020 228 C 423.031 228, 428.023 227.523, 429.114 226.939 C 433.918 224.368, 433.372 215.852, 428.279 213.916 C 426.954 213.412, 422.054 213, 417.389 213 C 409.719 213, 408.675 213.234, 406.455 215.455 M 144.456 226.255 C 143.670 228.302, 156.772 268.331, 158.691 269.750 C 161.132 271.554, 187.951 271.488, 190.435 269.671 C 192.156 268.413, 191.889 267.218, 185.347 246.921 L 178.442 225.500 161.699 225.226 C 148.660 225.012, 144.845 225.240, 144.456 226.255 M 58.660 302.066 C 56.019 343.005, 53.634 378.750, 53.361 381.500 L 52.865 386.500 65.548 393.765 L 78.232 401.030 77.652 396.765 C 77.334 394.419, 74.341 356.725, 71.002 313 C 67.664 269.275, 64.601 232.180, 64.197 230.566 C 63.767 228.846, 61.476 258.424, 58.660 302.066 M 229.635 256.073 C 227.724 257.576, 227 259.067, 227 261.500 C 227 267.137, 230.478 269, 241 269 C 251.522 269, 255 267.137, 255 261.500 C 255 255.863, 251.522 254, 241 254 C 233.682 254, 231.843 254.335, 229.635 256.073 M 276.635 256.073 C 272.991 258.939, 272.991 264.061, 276.635 266.927 C 278.853 268.672, 280.680 269, 288.180 269 C 296.308 269, 297.307 268.784, 299.545 266.545 C 302.886 263.205, 302.810 258.782, 299.365 256.073 C 297.157 254.335, 295.318 254, 288 254 C 280.682 254, 278.843 254.335, 276.635 256.073 M 323.729 255.250 C 319.482 258.461, 319.984 265.760, 324.597 267.862 C 325.970 268.488, 330.918 269, 335.593 269 C 343.282 269, 344.324 268.766, 346.545 266.545 C 347.895 265.195, 349 262.925, 349 261.500 C 349 260.075, 347.895 257.805, 346.545 256.455 C 344.289 254.198, 343.335 254, 334.737 254 C 328.801 254, 324.778 254.457, 323.729 255.250 M 369.911 255.871 C 367.055 258.183, 366.739 264.168, 369.336 266.764 C 370.761 268.190, 372.934 268.500, 381.500 268.500 C 393.048 268.500, 394.476 267.872, 395.589 262.303 C 396.103 259.736, 395.735 258.644, 393.657 256.566 C 391.265 254.174, 390.452 254, 381.656 254 C 373.928 254, 371.804 254.338, 369.911 255.871 M 416.455 256.455 C 413.510 259.399, 413.312 262.929, 415.912 266.139 C 417.603 268.227, 418.819 268.541, 426.453 268.854 C 436.413 269.263, 440.316 268.066, 441.959 264.098 C 443.334 260.780, 442.024 256.618, 439.114 255.061 C 438.023 254.477, 433.031 254, 428.020 254 C 419.680 254, 418.701 254.208, 416.455 256.455 M 239.174 297.314 C 236.491 300.171, 236.388 304.022, 238.912 307.139 C 240.690 309.335, 241.521 309.500, 250.807 309.500 C 262.366 309.500, 265 308.179, 265 302.384 C 265 296.487, 262.177 295, 250.986 295 C 242.205 295, 241.155 295.206, 239.174 297.314 M 286 297 C 282.974 300.026, 283.333 305.330, 286.747 308.016 C 289.203 309.947, 290.483 310.140, 298.836 309.838 C 307.234 309.534, 308.372 309.261, 310.089 307.139 C 312.677 303.942, 312.510 299.828, 309.686 297.174 C 307.638 295.251, 306.254 295, 297.686 295 C 289.333 295, 287.725 295.275, 286 297 M 332.944 296.844 C 329.602 299.550, 329.858 304.621, 333.495 307.749 C 336.134 310.019, 336.954 310.159, 345.751 309.841 C 354.237 309.534, 355.370 309.264, 357.089 307.139 C 359.688 303.929, 359.489 300.399, 356.545 297.455 C 354.286 295.195, 353.340 295, 344.656 295 C 336.977 295, 334.798 295.343, 332.944 296.844 M 379.455 297.455 C 376.732 300.177, 376.467 301.735, 378.110 305.343 C 379.700 308.831, 383.061 310, 391.500 310 C 399.939 310, 403.300 308.831, 404.890 305.343 C 406.533 301.735, 406.268 300.177, 403.545 297.455 C 401.281 295.190, 400.350 295, 391.500 295 C 382.650 295, 381.719 295.190, 379.455 297.455 M 426.455 297.455 C 423.511 300.399, 423.312 303.929, 425.911 307.139 C 427.630 309.264, 428.763 309.534, 437.249 309.841 C 446.046 310.159, 446.866 310.019, 449.505 307.749 C 453.142 304.621, 453.398 299.550, 450.056 296.844 C 448.202 295.343, 446.023 295, 438.344 295 C 429.660 295, 428.714 295.195, 426.455 297.455 M 166.635 305.073 C 164.938 306.408, 164.010 308.098, 164.029 309.823 C 164.079 314.395, 173.660 346.967, 175.580 349.088 C 178.220 352.006, 183.684 351.331, 186.340 347.757 L 188.379 345.015 183.542 327.257 C 180.881 317.491, 178.112 308.317, 177.389 306.871 C 175.194 302.483, 170.851 301.756, 166.635 305.073 M 114.189 313.039 C 112.985 314.160, 111.988 316.298, 111.973 317.789 C 111.927 322.257, 128.234 380.051, 130.480 383.384 C 131.624 385.081, 134.346 387.481, 136.530 388.718 L 140.500 390.967 250.139 390.984 C 355.042 390.999, 359.876 390.921, 362.046 389.164 C 364.962 386.802, 364.957 381.512, 362.035 378.590 C 359.947 376.502, 359.847 376.500, 251.257 376 L 142.568 375.500 134.901 347.785 C 130.684 332.541, 126.945 318.917, 126.592 317.509 C 125.064 311.422, 118.474 309.047, 114.189 313.039 M 196.052 322.444 C 193.301 325.373, 193.633 328.938, 197.828 341.498 C 200.076 348.228, 200.936 349.646, 203.250 350.441 C 207.124 351.772, 211.241 350.098, 212.434 346.706 C 213.623 343.325, 209.519 325.936, 206.677 322.320 C 204.171 319.130, 199.110 319.189, 196.052 322.444 M 246 338 C 243.305 340.695, 243.358 346.109, 246.105 348.595 C 247.879 350.201, 249.779 350.500, 258.193 350.500 C 267.479 350.500, 268.310 350.335, 270.088 348.139 C 272.567 345.079, 272.527 340.527, 270 338 C 268.267 336.267, 266.667 336, 258 336 C 249.333 336, 247.733 336.267, 246 338 M 293 338 C 290.328 340.672, 290.358 346.109, 293.057 348.551 C 295.346 350.623, 305.382 351.714, 311.535 350.559 C 318.631 349.228, 321.390 342.594, 316.686 338.174 C 314.638 336.251, 313.254 336, 304.686 336 C 296.333 336, 294.725 336.275, 293 338 M 340.153 337.750 C 336.783 340.602, 336.472 344.274, 339.319 347.584 C 341.551 350.180, 342.495 350.486, 349.309 350.830 C 358.323 351.285, 363.278 349.881, 364.853 346.424 C 366.453 342.912, 366.304 341.656, 363.927 338.635 C 361.940 336.108, 361.452 336, 352.038 336 C 344.144 336, 341.817 336.343, 340.153 337.750 M 386.073 338.635 C 383.696 341.656, 383.547 342.912, 385.147 346.424 C 386.722 349.881, 391.677 351.285, 400.691 350.830 C 407.505 350.486, 408.449 350.180, 410.681 347.584 C 413.528 344.274, 413.217 340.602, 409.847 337.750 C 408.183 336.343, 405.856 336, 397.962 336 C 388.548 336, 388.060 336.108, 386.073 338.635 M 433.174 338.314 C 428.760 343.013, 431.452 349.244, 438.465 350.559 C 440.432 350.928, 444.967 351.044, 448.542 350.816 C 456.331 350.320, 459.363 348.051, 459.214 342.826 C 459.057 337.292, 456.378 336, 445.064 336 C 436.202 336, 435.158 336.203, 433.174 338.314 M 0.310 376.500 C 0.315 379.800, 0.502 381.029, 0.725 379.232 C 0.947 377.435, 0.943 374.735, 0.715 373.232 C 0.486 371.729, 0.304 373.200, 0.310 376.500" stroke="none" fill="#060607" fill-rule="evenodd"/></svg>